<svg width="1184.301" height="87.9" viewBox="0 0 1184.301 87.9" xmlns="http://www.w3.org/2000/svg"><g id="svgGroup" stroke-linecap="round" fill-rule="evenodd" font-size="9pt" stroke="#ffffff" stroke-width="1" fill="#fafafa" style="stroke:#ffffff;stroke-width:1;fill:#fafafa"><path d="M 270.401 74.5 L 285.301 74.5 A 5.183 5.183 0 0 0 286.725 74.322 Q 288.323 73.864 288.747 72.233 A 5.304 5.304 0 0 0 288.901 70.9 L 288.901 35.7 L 294.801 46.6 A 6.438 6.438 0 0 0 296.258 48.479 Q 297.572 49.614 299.465 49.774 A 7.556 7.556 0 0 0 300.101 49.8 L 304.101 49.8 A 6.318 6.318 0 0 0 306.477 49.373 Q 308.026 48.75 309.035 47.218 A 7.632 7.632 0 0 0 309.401 46.6 L 315.301 35.7 L 315.301 70.9 A 5.183 5.183 0 0 0 315.479 72.325 Q 315.937 73.922 317.567 74.347 A 5.304 5.304 0 0 0 318.901 74.5 L 334.301 74.5 A 5.183 5.183 0 0 0 335.725 74.322 Q 337.323 73.864 337.747 72.233 A 5.304 5.304 0 0 0 337.901 70.9 L 337.901 6.1 A 5.183 5.183 0 0 0 337.722 4.676 Q 337.264 3.078 335.634 2.654 A 5.304 5.304 0 0 0 334.301 2.5 L 318.101 2.5 A 4.712 4.712 0 0 0 314.297 4.295 A 7.218 7.218 0 0 0 313.501 5.5 L 304.601 21.8 A 15.27 15.27 0 0 1 304.331 22.267 Q 304.079 22.685 303.873 22.951 A 3.248 3.248 0 0 1 303.751 23.1 Q 303.401 23.5 302.801 23.5 L 301.901 23.5 Q 301.301 23.5 300.951 23.1 A 3.729 3.729 0 0 1 300.742 22.836 Q 300.46 22.447 300.101 21.8 L 291.101 5.5 A 6.773 6.773 0 0 0 289.98 3.934 A 4.676 4.676 0 0 0 286.501 2.5 L 270.401 2.5 A 5.183 5.183 0 0 0 268.976 2.679 Q 267.378 3.136 266.954 4.767 A 5.304 5.304 0 0 0 266.801 6.1 L 266.801 70.9 A 5.183 5.183 0 0 0 266.979 72.325 Q 267.437 73.922 269.067 74.347 A 5.304 5.304 0 0 0 270.401 74.5 Z M 514.901 63.5 L 514.901 17 A 7.067 7.067 0 0 1 515.03 15.597 Q 515.327 14.135 516.301 13.3 L 529.201 2.4 A 3.559 3.559 0 0 1 530.354 1.785 Q 531.219 1.5 532.401 1.5 L 548.101 1.5 A 6.622 6.622 0 0 1 549.921 1.728 Q 551.962 2.313 552.504 4.397 A 6.777 6.777 0 0 1 552.701 6.1 L 552.701 51.7 Q 552.701 52.6 553.001 53.3 Q 553.301 54 554.301 54.5 L 554.301 17 Q 554.301 14.4 555.501 13.4 L 555.601 13.3 L 568.601 2.4 A 3.559 3.559 0 0 1 569.754 1.785 Q 570.619 1.5 571.801 1.5 L 587.001 1.5 A 6.622 6.622 0 0 1 588.821 1.728 Q 590.862 2.313 591.404 4.397 A 6.777 6.777 0 0 1 591.601 6.1 L 591.601 55.6 A 28.427 28.427 0 0 1 591.142 60.798 A 23.66 23.66 0 0 1 590.301 64.05 Q 589.001 67.9 585.601 70.8 L 572.601 81.6 A 18.433 18.433 0 0 1 569.021 83.967 Q 567.231 84.888 565.047 85.612 A 37.429 37.429 0 0 1 562.901 86.25 A 41.904 41.904 0 0 1 557.966 87.223 Q 553.143 87.9 546.801 87.9 A 77.987 77.987 0 0 1 540.539 87.664 Q 534.952 87.213 530.851 85.9 A 32.239 32.239 0 0 1 526.55 84.196 Q 524.307 83.103 522.573 81.743 A 17.331 17.331 0 0 1 521.101 80.45 A 19.119 19.119 0 0 1 517.195 75.032 A 17.851 17.851 0 0 1 516.251 72.6 Q 514.901 68.2 514.901 63.5 Z M 288.501 74.6 L 275.501 85.4 A 3.065 3.065 0 0 1 274.345 86.11 Q 273.863 86.282 273.268 86.352 A 7.422 7.422 0 0 1 272.401 86.4 L 257.501 86.4 A 6.622 6.622 0 0 1 255.68 86.172 Q 253.639 85.587 253.097 83.504 A 6.777 6.777 0 0 1 252.901 81.8 L 252.901 17 A 7.067 7.067 0 0 1 253.03 15.597 Q 253.327 14.135 254.301 13.3 L 267.201 2.4 A 3.559 3.559 0 0 1 268.354 1.785 Q 269.219 1.5 270.401 1.5 L 286.501 1.5 Q 288.401 1.5 289.651 2.25 A 4.624 4.624 0 0 1 290.567 2.988 Q 291.313 3.75 292.001 5 L 298.801 17.5 L 299.701 15.9 A 10.663 10.663 0 0 1 300.439 14.703 Q 300.876 14.093 301.361 13.63 A 6.371 6.371 0 0 1 301.501 13.5 L 314.401 2.7 A 6.529 6.529 0 0 1 315.472 2.042 A 5.621 5.621 0 0 1 316.051 1.8 Q 316.784 1.541 317.779 1.506 A 9.041 9.041 0 0 1 318.101 1.5 L 334.301 1.5 A 6.622 6.622 0 0 1 336.121 1.728 Q 338.162 2.313 338.704 4.397 A 6.777 6.777 0 0 1 338.901 6.1 L 338.901 70.9 A 7.067 7.067 0 0 1 338.771 72.303 Q 338.474 73.766 337.501 74.6 L 324.501 85.4 A 3.065 3.065 0 0 1 323.345 86.11 Q 322.863 86.282 322.268 86.352 A 7.422 7.422 0 0 1 321.401 86.4 L 306.001 86.4 A 8.985 8.985 0 0 1 304.775 86.323 Q 303.337 86.124 302.57 85.417 A 2.591 2.591 0 0 1 302.451 85.3 Q 301.687 84.5 301.479 83.013 A 8.767 8.767 0 0 1 301.401 81.8 L 301.401 55.4 L 295.501 60.3 A 6.041 6.041 0 0 1 292.665 61.577 A 8.343 8.343 0 0 1 291.201 61.7 L 289.901 61.7 L 289.901 70.9 A 7.067 7.067 0 0 1 289.771 72.303 Q 289.474 73.766 288.501 74.6 Z M 467.001 74.6 L 454.001 85.4 A 3.065 3.065 0 0 1 452.845 86.11 Q 452.363 86.282 451.768 86.352 A 7.422 7.422 0 0 1 450.901 86.4 L 435.401 86.4 A 6.622 6.622 0 0 1 433.58 86.172 Q 431.539 85.587 430.997 83.504 A 6.777 6.777 0 0 1 430.801 81.8 L 430.801 17 A 7.067 7.067 0 0 1 430.93 15.597 Q 431.227 14.135 432.201 13.3 L 445.101 2.4 A 3.559 3.559 0 0 1 446.254 1.785 Q 447.119 1.5 448.301 1.5 L 463.801 1.5 A 6.622 6.622 0 0 1 465.621 1.728 Q 467.662 2.313 468.204 4.397 A 6.777 6.777 0 0 1 468.401 6.1 L 468.401 15.2 Q 468.701 14.7 469.001 14.3 Q 469.301 13.9 469.701 13.6 L 482.601 2.7 Q 483.893 1.666 486.002 1.523 A 10.323 10.323 0 0 1 486.701 1.5 L 502.101 1.5 A 8.11 8.11 0 0 1 503.426 1.598 Q 506.911 2.179 505.201 6.2 L 495.601 28.2 A 14.34 14.34 0 0 1 500.145 29.532 A 12.339 12.339 0 0 1 504.201 32.75 Q 507.401 36.6 507.401 42.7 L 507.401 70.9 A 7.067 7.067 0 0 1 507.271 72.303 Q 506.974 73.766 506.001 74.6 L 493.001 85.4 A 3.065 3.065 0 0 1 491.845 86.11 Q 491.363 86.282 490.768 86.352 A 7.422 7.422 0 0 1 489.901 86.4 L 474.501 86.4 A 6.622 6.622 0 0 1 472.68 86.172 Q 470.639 85.587 470.097 83.504 A 6.777 6.777 0 0 1 469.901 81.8 L 469.901 62.3 Q 469.901 60.3 468.401 60 L 468.401 70.9 A 7.067 7.067 0 0 1 468.271 72.303 Q 467.974 73.766 467.001 74.6 Z M 448.301 74.5 L 463.801 74.5 A 5.183 5.183 0 0 0 465.225 74.322 Q 466.823 73.864 467.247 72.233 A 5.304 5.304 0 0 0 467.401 70.9 L 467.401 48 L 480.601 48 A 4.328 4.328 0 0 1 481.886 48.175 Q 483.3 48.615 483.669 50.163 A 5.339 5.339 0 0 1 483.801 51.4 L 483.801 70.9 A 5.183 5.183 0 0 0 483.979 72.325 Q 484.437 73.922 486.067 74.347 A 5.304 5.304 0 0 0 487.401 74.5 L 502.801 74.5 A 5.183 5.183 0 0 0 504.225 74.322 Q 505.823 73.864 506.247 72.233 A 5.304 5.304 0 0 0 506.401 70.9 L 506.401 42.7 A 17.47 17.47 0 0 0 505.929 38.531 A 12.282 12.282 0 0 0 503.051 33.05 A 11.993 11.993 0 0 0 496.121 29.33 A 16.432 16.432 0 0 0 494.101 29.1 L 504.301 5.8 A 6.437 6.437 0 0 0 504.507 5.248 Q 505.374 2.537 502.188 2.501 A 7.656 7.656 0 0 0 502.101 2.5 L 486.701 2.5 A 6.034 6.034 0 0 0 484.62 2.839 Q 482.975 3.439 482.04 5.105 A 7.026 7.026 0 0 0 481.701 5.8 L 471.401 29.1 L 467.401 29.1 L 467.401 6.1 A 5.183 5.183 0 0 0 467.222 4.676 Q 466.764 3.078 465.134 2.654 A 5.304 5.304 0 0 0 463.801 2.5 L 448.301 2.5 A 5.183 5.183 0 0 0 446.876 2.679 Q 445.278 3.136 444.854 4.767 A 5.304 5.304 0 0 0 444.701 6.1 L 444.701 70.9 A 5.183 5.183 0 0 0 444.879 72.325 Q 445.337 73.922 446.967 74.347 A 5.304 5.304 0 0 0 448.301 74.5 Z M 307.101 31.8 L 319.301 13.2 A 4.764 4.764 0 0 1 319.726 12.596 Q 319.977 12.294 320.252 12.09 A 2.29 2.29 0 0 1 320.651 11.85 Q 321.401 11.5 322.201 11.5 L 323.901 11.5 A 3.347 3.347 0 0 1 325.034 11.676 Q 326.601 12.239 326.601 14.6 L 326.601 65.5 L 325.601 65.5 L 325.601 14.6 A 3.683 3.683 0 0 0 325.496 13.709 A 3.134 3.134 0 0 0 325.301 13.15 Q 325.001 12.5 323.901 12.5 L 322.401 12.5 Q 321.701 12.5 321.201 12.7 A 1.168 1.168 0 0 0 320.897 12.888 Q 320.626 13.111 320.329 13.543 A 6.911 6.911 0 0 0 320.101 13.9 L 307.901 32.3 Q 306.101 35 305.151 36 Q 304.459 36.728 303.105 36.926 A 7.653 7.653 0 0 1 302.001 37 A 7.645 7.645 0 0 1 300.891 36.925 Q 299.541 36.727 298.851 36 Q 297.901 35 296.101 32.3 L 283.901 13.9 Q 283.425 13.108 282.981 12.818 A 1.128 1.128 0 0 0 282.751 12.7 A 3.253 3.253 0 0 0 282.064 12.536 A 4.293 4.293 0 0 0 281.501 12.5 L 280.001 12.5 Q 279.001 12.5 278.701 13.15 A 3.273 3.273 0 0 0 278.419 14.21 A 3.989 3.989 0 0 0 278.401 14.6 L 278.401 65.5 L 277.401 65.5 L 277.401 14.6 Q 277.401 11.862 279.429 11.542 A 3.674 3.674 0 0 1 280.001 11.5 L 281.701 11.5 A 3.867 3.867 0 0 1 283.026 11.74 A 4.57 4.57 0 0 1 283.301 11.85 Q 284.101 12.2 284.701 13.2 L 296.901 31.8 Q 298.372 34.05 299.169 34.952 A 5.551 5.551 0 0 0 299.401 35.2 Q 300.201 36 302.001 36 A 6.391 6.391 0 0 0 302.932 35.937 Q 303.402 35.868 303.776 35.722 A 2.359 2.359 0 0 0 304.601 35.2 A 6.898 6.898 0 0 0 305.025 34.726 Q 305.618 34.01 306.519 32.675 A 69.604 69.604 0 0 0 307.101 31.8 Z M 185.101 74.5 L 200.101 74.5 A 5.183 5.183 0 0 0 201.525 74.322 Q 203.123 73.864 203.547 72.233 A 5.304 5.304 0 0 0 203.701 70.9 L 203.701 37.9 L 220.801 58.6 L 220.801 70.9 A 5.183 5.183 0 0 0 220.979 72.325 Q 221.437 73.922 223.067 74.347 A 5.304 5.304 0 0 0 224.401 74.5 L 239.401 74.5 A 5.183 5.183 0 0 0 240.825 74.322 Q 242.423 73.864 242.847 72.233 A 5.304 5.304 0 0 0 243.001 70.9 L 243.001 6.1 A 5.183 5.183 0 0 0 242.822 4.676 Q 242.364 3.078 240.734 2.654 A 5.304 5.304 0 0 0 239.401 2.5 L 224.401 2.5 A 5.183 5.183 0 0 0 222.976 2.679 Q 221.378 3.136 220.954 4.767 A 5.304 5.304 0 0 0 220.801 6.1 L 220.801 27.4 L 201.401 5.2 A 7.343 7.343 0 0 0 196.055 2.517 A 9.213 9.213 0 0 0 195.501 2.5 L 185.101 2.5 A 5.183 5.183 0 0 0 183.676 2.679 Q 182.078 3.136 181.654 4.767 A 5.304 5.304 0 0 0 181.501 6.1 L 181.501 70.9 A 5.183 5.183 0 0 0 181.679 72.325 Q 182.137 73.922 183.767 74.347 A 5.304 5.304 0 0 0 185.101 74.5 Z M 806.001 74.5 L 821.001 74.5 A 5.183 5.183 0 0 0 822.425 74.322 Q 824.023 73.864 824.447 72.233 A 5.304 5.304 0 0 0 824.601 70.9 L 824.601 37.9 L 841.701 58.6 L 841.701 70.9 A 5.183 5.183 0 0 0 841.879 72.325 Q 842.337 73.922 843.967 74.347 A 5.304 5.304 0 0 0 845.301 74.5 L 860.301 74.5 A 5.183 5.183 0 0 0 861.725 74.322 Q 863.323 73.864 863.747 72.233 A 5.304 5.304 0 0 0 863.901 70.9 L 863.901 6.1 A 5.183 5.183 0 0 0 863.722 4.676 Q 863.264 3.078 861.634 2.654 A 5.304 5.304 0 0 0 860.301 2.5 L 845.301 2.5 A 5.183 5.183 0 0 0 843.876 2.679 Q 842.278 3.136 841.854 4.767 A 5.304 5.304 0 0 0 841.701 6.1 L 841.701 27.4 L 822.301 5.2 A 7.343 7.343 0 0 0 816.955 2.517 A 9.213 9.213 0 0 0 816.401 2.5 L 806.001 2.5 A 5.183 5.183 0 0 0 804.576 2.679 Q 802.978 3.136 802.554 4.767 A 5.304 5.304 0 0 0 802.401 6.1 L 802.401 70.9 A 5.183 5.183 0 0 0 802.579 72.325 Q 803.037 73.922 804.667 74.347 A 5.304 5.304 0 0 0 806.001 74.5 Z M 590.601 55.6 L 590.601 6.1 A 5.183 5.183 0 0 0 590.422 4.676 Q 589.964 3.078 588.334 2.654 A 5.304 5.304 0 0 0 587.001 2.5 L 571.801 2.5 A 5.183 5.183 0 0 0 570.376 2.679 Q 568.778 3.136 568.354 4.767 A 5.304 5.304 0 0 0 568.201 6.1 L 568.201 51.7 A 4.301 4.301 0 0 1 566.882 54.879 A 5.313 5.313 0 0 1 566.701 55.05 A 3.505 3.505 0 0 1 565.636 55.672 Q 563.971 56.33 560.634 56.393 A 38.517 38.517 0 0 1 559.901 56.4 A 31.414 31.414 0 0 1 557.803 56.336 Q 554.662 56.124 553.414 55.222 A 2.573 2.573 0 0 1 553.201 55.05 A 4.471 4.471 0 0 1 552.019 53.406 A 4.486 4.486 0 0 1 551.701 51.7 L 551.701 6.1 A 5.183 5.183 0 0 0 551.522 4.676 Q 551.064 3.078 549.434 2.654 A 5.304 5.304 0 0 0 548.101 2.5 L 532.401 2.5 A 5.183 5.183 0 0 0 530.976 2.679 Q 529.378 3.136 528.954 4.767 A 5.304 5.304 0 0 0 528.801 6.1 L 528.801 55.6 Q 528.801 60.2 530.151 63.95 A 13.894 13.894 0 0 0 533.918 69.525 A 17.178 17.178 0 0 0 534.951 70.4 A 18.261 18.261 0 0 0 538.315 72.456 Q 539.951 73.241 541.919 73.863 A 37.415 37.415 0 0 0 544.401 74.55 A 44.788 44.788 0 0 0 549.252 75.42 Q 551.819 75.746 554.804 75.889 A 102.593 102.593 0 0 0 559.701 76 A 98.816 98.816 0 0 0 565.704 75.829 Q 571.063 75.502 575.001 74.55 Q 579.499 73.463 582.564 71.673 A 16.805 16.805 0 0 0 584.451 70.4 A 15.377 15.377 0 0 0 587.65 67.056 A 13.404 13.404 0 0 0 589.251 63.95 A 22.736 22.736 0 0 0 590.437 58.696 A 28.556 28.556 0 0 0 590.601 55.6 Z M 974.301 74.5 L 1020.701 74.5 A 5.183 5.183 0 0 0 1022.125 74.322 Q 1023.723 73.864 1024.147 72.233 A 5.304 5.304 0 0 0 1024.301 70.9 L 1024.301 59.2 A 5.183 5.183 0 0 0 1024.122 57.776 Q 1023.664 56.178 1022.034 55.754 A 5.304 5.304 0 0 0 1020.701 55.6 L 993.101 55.6 L 993.101 47 L 1012.601 47 A 5.183 5.183 0 0 0 1014.025 46.822 Q 1015.623 46.364 1016.047 44.733 A 5.304 5.304 0 0 0 1016.201 43.4 L 1016.201 32.7 A 5.183 5.183 0 0 0 1016.022 31.276 Q 1015.564 29.678 1013.934 29.254 A 5.304 5.304 0 0 0 1012.601 29.1 L 993.101 29.1 L 993.101 21.4 L 1020.701 21.4 A 5.183 5.183 0 0 0 1022.125 21.222 Q 1023.723 20.764 1024.147 19.133 A 5.304 5.304 0 0 0 1024.301 17.8 L 1024.301 6.1 A 5.183 5.183 0 0 0 1024.122 4.676 Q 1023.664 3.078 1022.034 2.654 A 5.304 5.304 0 0 0 1020.701 2.5 L 974.301 2.5 A 5.183 5.183 0 0 0 972.876 2.679 Q 971.278 3.136 970.854 4.767 A 5.304 5.304 0 0 0 970.701 6.1 L 970.701 70.9 A 5.183 5.183 0 0 0 970.879 72.325 Q 971.337 73.922 972.967 74.347 A 5.304 5.304 0 0 0 974.301 74.5 Z M 917.401 86.4 L 891.401 86.4 A 10.173 10.173 0 0 1 889.926 86.3 Q 888.619 86.108 887.701 85.55 Q 886.301 84.7 885.401 82.5 L 875.601 58 Q 874.46 55.055 873.726 53.057 A 160.361 160.361 0 0 1 873.651 52.85 Q 872.901 50.8 872.601 48.7 Q 872.385 47.189 872.324 45.108 A 58.851 58.851 0 0 1 872.301 43.4 L 872.301 17 A 7.067 7.067 0 0 1 872.43 15.597 Q 872.727 14.135 873.701 13.3 L 886.601 2.4 A 3.559 3.559 0 0 1 887.754 1.785 Q 888.619 1.5 889.801 1.5 L 905.701 1.5 Q 910.601 1.5 910.601 6.1 L 910.601 33.7 Q 910.601 34.7 910.801 35.55 Q 910.972 36.281 911.218 37.196 A 80.569 80.569 0 0 0 911.301 37.5 L 911.601 38.2 L 911.601 17 A 7.067 7.067 0 0 1 911.73 15.597 Q 912.027 14.135 913.001 13.3 L 925.901 2.4 A 3.559 3.559 0 0 1 927.054 1.785 Q 927.919 1.5 929.101 1.5 L 944.801 1.5 A 8.985 8.985 0 0 1 946.026 1.578 Q 947.464 1.776 948.231 2.483 A 2.591 2.591 0 0 1 948.351 2.6 Q 949.114 3.4 949.322 4.887 A 8.767 8.767 0 0 1 949.401 6.1 L 949.401 32.5 A 56.354 56.354 0 0 1 949.362 34.658 Q 949.293 36.455 949.101 37.8 Q 948.801 39.9 948.101 41.95 Q 947.63 43.328 946.889 45.179 A 127.942 127.942 0 0 1 946.101 47.1 L 936.301 71.6 A 5.793 5.793 0 0 1 935.906 72.522 A 4.654 4.654 0 0 1 935.501 73.15 A 12.999 12.999 0 0 1 934.938 73.834 A 10.402 10.402 0 0 1 934.501 74.3 L 921.601 85 Q 920.101 86.4 917.401 86.4 Z M 203.301 74.6 L 190.301 85.4 A 3.065 3.065 0 0 1 189.145 86.11 Q 188.663 86.282 188.068 86.352 A 7.422 7.422 0 0 1 187.201 86.4 L 172.201 86.4 A 6.622 6.622 0 0 1 170.38 86.172 Q 168.339 85.587 167.797 83.504 A 6.777 6.777 0 0 1 167.601 81.8 L 167.601 17 A 7.067 7.067 0 0 1 167.73 15.597 Q 168.027 14.135 169.001 13.3 L 181.901 2.4 A 3.559 3.559 0 0 1 183.054 1.785 Q 183.919 1.5 185.101 1.5 L 195.501 1.5 A 8.602 8.602 0 0 1 201.858 4.137 A 10.625 10.625 0 0 1 202.201 4.5 L 209.101 12.5 L 221.201 2.4 A 3.559 3.559 0 0 1 222.354 1.785 Q 223.219 1.5 224.401 1.5 L 239.401 1.5 A 6.622 6.622 0 0 1 241.221 1.728 Q 243.262 2.313 243.804 4.397 A 6.777 6.777 0 0 1 244.001 6.1 L 244.001 70.9 A 7.067 7.067 0 0 1 243.871 72.303 Q 243.574 73.766 242.601 74.6 L 229.601 85.4 A 3.065 3.065 0 0 1 228.445 86.11 Q 227.963 86.282 227.368 86.352 A 7.422 7.422 0 0 1 226.501 86.4 L 211.501 86.4 A 6.622 6.622 0 0 1 209.68 86.172 Q 207.639 85.587 207.097 83.504 A 6.777 6.777 0 0 1 206.901 81.8 L 206.901 69.9 L 204.701 67.2 L 204.701 70.9 A 7.067 7.067 0 0 1 204.571 72.303 Q 204.274 73.766 203.301 74.6 Z M 824.201 74.6 L 811.201 85.4 A 3.065 3.065 0 0 1 810.045 86.11 Q 809.563 86.282 808.968 86.352 A 7.422 7.422 0 0 1 808.101 86.4 L 793.101 86.4 A 6.622 6.622 0 0 1 791.28 86.172 Q 789.239 85.587 788.697 83.504 A 6.777 6.777 0 0 1 788.501 81.8 L 788.501 17 A 7.067 7.067 0 0 1 788.63 15.597 Q 788.927 14.135 789.901 13.3 L 802.801 2.4 A 3.559 3.559 0 0 1 803.954 1.785 Q 804.819 1.5 806.001 1.5 L 816.401 1.5 A 8.602 8.602 0 0 1 822.758 4.137 A 10.625 10.625 0 0 1 823.101 4.5 L 830.001 12.5 L 842.101 2.4 A 3.559 3.559 0 0 1 843.254 1.785 Q 844.119 1.5 845.301 1.5 L 860.301 1.5 A 6.622 6.622 0 0 1 862.121 1.728 Q 864.162 2.313 864.704 4.397 A 6.777 6.777 0 0 1 864.901 6.1 L 864.901 70.9 A 7.067 7.067 0 0 1 864.771 72.303 Q 864.474 73.766 863.501 74.6 L 850.501 85.4 A 3.065 3.065 0 0 1 849.345 86.11 Q 848.863 86.282 848.268 86.352 A 7.422 7.422 0 0 1 847.401 86.4 L 832.401 86.4 A 6.622 6.622 0 0 1 830.58 86.172 Q 828.539 85.587 827.997 83.504 A 6.777 6.777 0 0 1 827.801 81.8 L 827.801 69.9 L 825.601 67.2 L 825.601 70.9 A 7.067 7.067 0 0 1 825.471 72.303 Q 825.174 73.766 824.201 74.6 Z M 1068.301 74.6 L 1055.301 85.4 A 3.065 3.065 0 0 1 1054.145 86.11 Q 1053.663 86.282 1053.068 86.352 A 7.422 7.422 0 0 1 1052.201 86.4 L 1036.801 86.4 A 6.622 6.622 0 0 1 1034.98 86.172 Q 1032.939 85.587 1032.397 83.504 A 6.777 6.777 0 0 1 1032.201 81.8 L 1032.201 17 A 7.067 7.067 0 0 1 1032.33 15.597 Q 1032.627 14.135 1033.601 13.3 L 1046.501 2.4 A 3.559 3.559 0 0 1 1047.654 1.785 Q 1048.519 1.5 1049.701 1.5 L 1083.001 1.5 Q 1088.165 1.5 1091.87 2.438 A 17.956 17.956 0 0 1 1095.501 3.75 A 15.235 15.235 0 0 1 1098.983 6.101 A 12.125 12.125 0 0 1 1101.851 10 A 19.757 19.757 0 0 1 1103.44 15.469 A 25.81 25.81 0 0 1 1103.701 19.2 L 1103.701 23.8 Q 1103.701 27.5 1102.801 30.25 A 10.379 10.379 0 0 1 1101.446 33.003 A 9.008 9.008 0 0 1 1099.901 34.7 L 1099.801 34.7 Q 1104.501 36 1107.351 39.9 A 14.42 14.42 0 0 1 1109.8 45.556 A 20.378 20.378 0 0 1 1110.201 49.7 L 1110.201 70.9 A 7.067 7.067 0 0 1 1110.071 72.303 Q 1109.774 73.766 1108.801 74.6 L 1095.801 85.4 A 3.065 3.065 0 0 1 1094.645 86.11 Q 1094.163 86.282 1093.568 86.352 A 7.422 7.422 0 0 1 1092.701 86.4 L 1077.201 86.4 A 6.622 6.622 0 0 1 1075.38 86.172 Q 1073.339 85.587 1072.797 83.504 A 6.777 6.777 0 0 1 1072.601 81.8 L 1072.601 66.5 Q 1072.601 64.942 1072.096 64.14 A 2.056 2.056 0 0 0 1072.001 64 A 1.746 1.746 0 0 0 1071.26 63.443 Q 1070.682 63.2 1069.801 63.2 L 1069.701 63.2 L 1069.701 70.9 A 7.067 7.067 0 0 1 1069.571 72.303 Q 1069.274 73.766 1068.301 74.6 Z M 194.701 12.3 L 231.501 53.7 L 231.501 11.5 L 232.501 11.5 L 232.501 65.5 L 231.501 65.5 L 231.501 55.2 L 193.701 12.8 A 1.997 1.997 0 0 0 193.565 12.676 Q 193.426 12.561 193.313 12.521 A 0.341 0.341 0 0 0 193.201 12.5 A 0.183 0.183 0 0 0 193.096 12.529 Q 193.024 12.577 193.006 12.707 A 0.693 0.693 0 0 0 193.001 12.8 L 193.001 65.5 L 192.001 65.5 L 192.001 12.6 A 1.728 1.728 0 0 1 192.06 12.125 Q 192.213 11.593 192.756 11.451 A 1.768 1.768 0 0 1 193.201 11.4 Q 193.801 11.4 194.701 12.3 Z M 815.601 12.3 L 852.401 53.7 L 852.401 11.5 L 853.401 11.5 L 853.401 65.5 L 852.401 65.5 L 852.401 55.2 L 814.601 12.8 A 1.997 1.997 0 0 0 814.465 12.676 Q 814.326 12.561 814.213 12.521 A 0.341 0.341 0 0 0 814.101 12.5 A 0.183 0.183 0 0 0 813.996 12.529 Q 813.924 12.577 813.906 12.707 A 0.693 0.693 0 0 0 813.901 12.8 L 813.901 65.5 L 812.901 65.5 L 812.901 12.6 A 1.728 1.728 0 0 1 812.96 12.125 Q 813.113 11.593 813.656 11.451 A 1.768 1.768 0 0 1 814.101 11.4 Q 814.701 11.4 815.601 12.3 Z M 904.301 74.5 L 930.301 74.5 Q 932.301 74.5 933.501 73.8 A 3.489 3.489 0 0 0 934.484 72.921 Q 934.813 72.501 935.085 71.944 A 7.998 7.998 0 0 0 935.401 71.2 L 945.201 46.7 A 196.945 196.945 0 0 0 945.769 45.263 Q 946.576 43.2 947.101 41.7 Q 947.801 39.7 948.101 37.65 A 24.661 24.661 0 0 0 948.28 36.003 Q 948.348 35.136 948.378 34.136 A 55.457 55.457 0 0 0 948.401 32.5 L 948.401 6.1 A 5.183 5.183 0 0 0 948.222 4.676 Q 947.764 3.078 946.134 2.654 A 5.304 5.304 0 0 0 944.801 2.5 L 929.101 2.5 A 5.183 5.183 0 0 0 927.676 2.679 Q 926.078 3.136 925.654 4.767 A 5.304 5.304 0 0 0 925.501 6.1 L 925.501 33.6 Q 925.501 34.6 925.301 35.6 A 13.391 13.391 0 0 1 924.972 36.889 A 16.479 16.479 0 0 1 924.701 37.7 L 920.001 51.8 A 3.533 3.533 0 0 1 919.706 52.524 Q 919.161 53.5 918.101 53.5 L 917.001 53.5 Q 915.601 53.5 915.101 51.8 L 910.401 37.8 A 15.694 15.694 0 0 1 909.987 36.497 A 12.76 12.76 0 0 1 909.801 35.7 Q 909.601 34.7 909.601 33.7 L 909.601 6.1 Q 909.601 3.269 907.188 2.664 A 6.139 6.139 0 0 0 905.701 2.5 L 889.801 2.5 A 5.183 5.183 0 0 0 888.376 2.679 Q 886.778 3.136 886.354 4.767 A 5.304 5.304 0 0 0 886.201 6.1 L 886.201 32.5 A 53.044 53.044 0 0 0 886.239 34.593 Q 886.278 35.574 886.356 36.419 A 23.263 23.263 0 0 0 886.501 37.65 Q 886.801 39.7 887.501 41.7 Q 888.166 43.601 889.282 46.404 A 219.111 219.111 0 0 0 889.401 46.7 L 899.201 71.2 A 8.197 8.197 0 0 0 899.74 72.27 Q 900.058 72.795 900.423 73.177 A 3.556 3.556 0 0 0 901.201 73.8 A 4.746 4.746 0 0 0 902.467 74.3 Q 903.284 74.5 904.301 74.5 Z M 681.401 86.4 L 657.001 86.4 Q 650.115 86.4 645.158 84.502 A 21.087 21.087 0 0 1 642.551 83.3 Q 636.901 80.2 634.151 74.7 A 25.796 25.796 0 0 1 631.733 66.801 A 33.518 33.518 0 0 1 631.401 62 L 631.401 33.9 Q 631.401 25.927 634.771 20.897 A 16.201 16.201 0 0 1 637.701 17.6 L 650.701 6.7 A 18.523 18.523 0 0 1 656.517 3.437 Q 661.905 1.5 669.901 1.5 L 694.301 1.5 A 6.622 6.622 0 0 1 696.121 1.728 Q 698.162 2.313 698.704 4.397 A 6.777 6.777 0 0 1 698.901 6.1 L 698.901 18.2 A 7.067 7.067 0 0 1 698.771 19.603 Q 698.474 21.066 697.501 21.9 L 684.501 32.7 A 3.065 3.065 0 0 1 683.345 33.41 Q 682.863 33.582 682.268 33.652 A 7.422 7.422 0 0 1 681.401 33.7 L 669.101 33.7 L 669.101 50.6 A 5.296 5.296 0 0 0 669.203 51.683 Q 669.466 52.939 670.401 53.55 A 4.431 4.431 0 0 0 671.544 54.068 Q 672.638 54.4 674.201 54.4 L 694.301 54.4 A 6.622 6.622 0 0 1 696.121 54.628 Q 698.162 55.213 698.704 57.297 A 6.777 6.777 0 0 1 698.901 59 L 698.901 70.9 A 7.067 7.067 0 0 1 698.771 72.303 Q 698.474 73.766 697.501 74.6 L 684.501 85.4 A 3.065 3.065 0 0 1 683.345 86.11 Q 682.863 86.282 682.268 86.352 A 7.422 7.422 0 0 1 681.401 86.4 Z M 1007.801 86.4 L 961.401 86.4 A 6.622 6.622 0 0 1 959.58 86.172 Q 957.539 85.587 956.997 83.504 A 6.777 6.777 0 0 1 956.801 81.8 L 956.801 17 A 7.067 7.067 0 0 1 956.93 15.597 Q 957.227 14.135 958.201 13.3 L 971.101 2.4 A 3.559 3.559 0 0 1 972.254 1.785 Q 973.119 1.5 974.301 1.5 L 1020.701 1.5 A 6.622 6.622 0 0 1 1022.521 1.728 Q 1024.562 2.313 1025.104 4.397 A 6.777 6.777 0 0 1 1025.301 6.1 L 1025.301 17.8 A 7.067 7.067 0 0 1 1025.171 19.203 Q 1024.874 20.666 1023.901 21.5 L 1015.301 28.6 Q 1016.922 29.454 1017.16 31.837 A 8.712 8.712 0 0 1 1017.201 32.7 L 1017.201 43.4 A 7.067 7.067 0 0 1 1017.071 44.803 Q 1016.774 46.266 1015.801 47.1 L 1006.901 54.6 L 1020.701 54.6 A 6.622 6.622 0 0 1 1022.521 54.828 Q 1024.562 55.413 1025.104 57.497 A 6.777 6.777 0 0 1 1025.301 59.2 L 1025.301 70.9 A 7.067 7.067 0 0 1 1025.171 72.303 Q 1024.874 73.766 1023.901 74.6 L 1010.901 85.4 A 3.065 3.065 0 0 1 1009.745 86.11 Q 1009.263 86.282 1008.668 86.352 A 7.422 7.422 0 0 1 1007.801 86.4 Z M 118.501 74.6 L 105.501 85.4 A 3.065 3.065 0 0 1 104.345 86.11 Q 103.863 86.282 103.268 86.352 A 7.422 7.422 0 0 1 102.401 86.4 L 87.701 86.4 A 6.622 6.622 0 0 1 85.88 86.172 Q 83.839 85.587 83.297 83.504 A 6.777 6.777 0 0 1 83.101 81.8 L 83.101 55.4 Q 83.101 52.736 83.802 49.444 A 43.112 43.112 0 0 1 84.051 48.35 A 53.034 53.034 0 0 1 84.925 45.184 Q 85.356 43.779 85.9 42.234 A 106.13 106.13 0 0 1 87.101 39 L 95.701 16.4 Q 96.001 15.5 96.451 14.85 A 8.78 8.78 0 0 1 97.078 14.044 A 7.438 7.438 0 0 1 97.401 13.7 L 97.501 13.6 L 110.301 2.9 A 4.782 4.782 0 0 1 112.116 1.861 Q 112.846 1.624 113.731 1.543 A 10.59 10.59 0 0 1 114.701 1.5 L 141.601 1.5 A 8.214 8.214 0 0 1 143.84 1.784 Q 146.551 2.551 147.501 5.4 L 156.201 28.1 A 102.965 102.965 0 0 1 157.614 31.946 Q 158.657 34.981 159.251 37.45 A 38.456 38.456 0 0 1 159.892 40.688 Q 160.133 42.285 160.186 43.713 A 21.299 21.299 0 0 1 160.201 44.5 L 160.201 70.9 A 7.067 7.067 0 0 1 160.071 72.303 Q 159.774 73.766 158.801 74.6 L 145.801 85.4 A 3.065 3.065 0 0 1 144.645 86.11 Q 144.163 86.282 143.568 86.352 A 7.422 7.422 0 0 1 142.701 86.4 L 127.601 86.4 Q 122.701 86.4 122.701 81.8 L 122.701 68.8 L 119.901 68.8 L 119.901 70.9 A 7.067 7.067 0 0 1 119.771 72.303 Q 119.474 73.766 118.501 74.6 Z M 381.701 74.6 L 368.701 85.4 A 3.065 3.065 0 0 1 367.545 86.11 Q 367.063 86.282 366.468 86.352 A 7.422 7.422 0 0 1 365.601 86.4 L 350.901 86.4 A 6.622 6.622 0 0 1 349.08 86.172 Q 347.039 85.587 346.497 83.504 A 6.777 6.777 0 0 1 346.301 81.8 L 346.301 55.4 Q 346.301 52.736 347.002 49.444 A 43.112 43.112 0 0 1 347.251 48.35 A 53.034 53.034 0 0 1 348.125 45.184 Q 348.556 43.779 349.1 42.234 A 106.13 106.13 0 0 1 350.301 39 L 358.901 16.4 Q 359.201 15.5 359.651 14.85 A 8.78 8.78 0 0 1 360.278 14.044 A 7.438 7.438 0 0 1 360.601 13.7 L 360.701 13.6 L 373.501 2.9 A 4.782 4.782 0 0 1 375.316 1.861 Q 376.046 1.624 376.931 1.543 A 10.59 10.59 0 0 1 377.901 1.5 L 404.801 1.5 A 8.214 8.214 0 0 1 407.04 1.784 Q 409.751 2.551 410.701 5.4 L 419.401 28.1 A 102.965 102.965 0 0 1 420.814 31.946 Q 421.857 34.981 422.451 37.45 A 38.456 38.456 0 0 1 423.092 40.688 Q 423.333 42.285 423.386 43.713 A 21.299 21.299 0 0 1 423.401 44.5 L 423.401 70.9 A 7.067 7.067 0 0 1 423.271 72.303 Q 422.974 73.766 422.001 74.6 L 409.001 85.4 A 3.065 3.065 0 0 1 407.845 86.11 Q 407.363 86.282 406.768 86.352 A 7.422 7.422 0 0 1 405.901 86.4 L 390.801 86.4 Q 385.901 86.4 385.901 81.8 L 385.901 68.8 L 383.101 68.8 L 383.101 70.9 A 7.067 7.067 0 0 1 382.971 72.303 Q 382.674 73.766 381.701 74.6 Z M 1049.701 74.5 L 1065.101 74.5 A 5.183 5.183 0 0 0 1066.525 74.322 Q 1068.123 73.864 1068.547 72.233 A 5.304 5.304 0 0 0 1068.701 70.9 L 1068.701 51.3 L 1082.701 51.3 A 6.936 6.936 0 0 1 1083.728 51.371 Q 1085.026 51.566 1085.651 52.3 Q 1086.427 53.214 1086.494 55.213 A 11.562 11.562 0 0 1 1086.501 55.6 L 1086.501 70.9 A 5.183 5.183 0 0 0 1086.679 72.325 Q 1087.137 73.922 1088.767 74.347 A 5.304 5.304 0 0 0 1090.101 74.5 L 1105.601 74.5 A 5.183 5.183 0 0 0 1107.025 74.322 Q 1108.623 73.864 1109.047 72.233 A 5.304 5.304 0 0 0 1109.201 70.9 L 1109.201 49.7 Q 1109.201 43.4 1105.901 39.6 Q 1102.601 35.8 1097.101 35.2 A 9.18 9.18 0 0 0 1099.481 33.72 A 7.5 7.5 0 0 0 1101.501 30.9 A 14.634 14.634 0 0 0 1102.342 28.005 Q 1102.701 26.097 1102.701 23.8 L 1102.701 19.2 A 23.491 23.491 0 0 0 1102.305 14.787 A 17.621 17.621 0 0 0 1100.901 10.45 A 11.861 11.861 0 0 0 1096.794 5.753 A 15.851 15.851 0 0 0 1094.801 4.6 A 17.713 17.713 0 0 0 1091.168 3.331 Q 1089.335 2.89 1087.144 2.683 A 44.192 44.192 0 0 0 1083.001 2.5 L 1049.701 2.5 A 5.183 5.183 0 0 0 1048.276 2.679 Q 1046.678 3.136 1046.254 4.767 A 5.304 5.304 0 0 0 1046.101 6.1 L 1046.101 70.9 A 5.183 5.183 0 0 0 1046.279 72.325 Q 1046.737 73.922 1048.367 74.347 A 5.304 5.304 0 0 0 1049.701 74.5 Z M 455.601 11.5 L 456.601 11.5 L 456.601 38.1 L 478.301 38.1 L 489.801 11.5 L 490.901 11.5 L 479.401 38.1 L 483.501 38.1 A 27.264 27.264 0 0 1 486.731 38.278 Q 490.187 38.692 492.254 40.068 A 7.573 7.573 0 0 1 492.651 40.35 A 6.884 6.884 0 0 1 494.952 43.602 Q 495.378 44.792 495.524 46.271 A 16.572 16.572 0 0 1 495.601 47.9 L 495.601 65.5 L 494.601 65.5 L 494.601 47.9 A 13.12 13.12 0 0 0 494.383 45.422 Q 494.118 44.047 493.53 43.001 A 5.877 5.877 0 0 0 491.851 41.1 A 8.812 8.812 0 0 0 489.402 39.886 Q 487.161 39.149 483.935 39.103 A 30.434 30.434 0 0 0 483.501 39.1 L 456.601 39.1 L 456.601 65.5 L 455.601 65.5 L 455.601 11.5 Z M 982.601 64.5 L 1015.301 64.5 L 1015.301 65.5 L 981.601 65.5 L 981.601 11.5 L 1015.301 11.5 L 1015.301 12.5 L 982.601 12.5 L 982.601 37.6 L 1007.201 37.6 L 1007.201 38.6 L 982.601 38.6 L 982.601 64.5 Z M 70.501 70.3 L 57.501 81.1 Q 53.052 84.903 45.103 85.977 A 50.936 50.936 0 0 1 38.301 86.4 L 4.601 86.4 A 6.622 6.622 0 0 1 2.78 86.172 Q 0.739 85.587 0.197 83.504 A 6.777 6.777 0 0 1 0.001 81.8 L 0.001 17 A 7.067 7.067 0 0 1 0.13 15.597 Q 0.427 14.135 1.401 13.3 L 14.301 2.4 A 3.559 3.559 0 0 1 15.454 1.785 Q 16.319 1.5 17.501 1.5 L 51.201 1.5 Q 64.041 1.5 70.258 6.468 A 15.633 15.633 0 0 1 70.601 6.75 Q 76.801 12 76.801 22.9 L 76.801 54.1 Q 76.801 64.9 70.501 70.3 Z M 1148.501 86.4 L 1132.301 86.4 A 6.622 6.622 0 0 1 1130.48 86.172 Q 1128.439 85.587 1127.897 83.504 A 6.777 6.777 0 0 1 1127.701 81.8 L 1127.701 33.7 L 1114.001 33.7 A 6.622 6.622 0 0 1 1112.18 33.472 Q 1110.139 32.887 1109.597 30.804 A 6.777 6.777 0 0 1 1109.401 29.1 L 1109.401 17 A 7.067 7.067 0 0 1 1109.53 15.597 Q 1109.827 14.135 1110.801 13.3 L 1123.701 2.4 A 3.559 3.559 0 0 1 1124.854 1.785 Q 1125.719 1.5 1126.901 1.5 L 1179.701 1.5 A 6.622 6.622 0 0 1 1181.521 1.728 Q 1183.562 2.313 1184.104 4.397 A 6.777 6.777 0 0 1 1184.301 6.1 L 1184.301 18.2 A 7.067 7.067 0 0 1 1184.171 19.603 Q 1183.874 21.066 1182.901 21.9 L 1169.901 32.7 A 3.065 3.065 0 0 1 1168.745 33.41 Q 1168.263 33.582 1167.668 33.652 A 7.422 7.422 0 0 1 1166.801 33.7 L 1166.001 33.7 L 1166.001 70.9 A 7.067 7.067 0 0 1 1165.871 72.303 Q 1165.574 73.766 1164.601 74.6 L 1151.601 85.4 A 3.065 3.065 0 0 1 1150.445 86.11 Q 1149.963 86.282 1149.368 86.352 A 7.422 7.422 0 0 1 1148.501 86.4 Z M 669.901 74.5 L 694.301 74.5 A 5.183 5.183 0 0 0 695.725 74.322 Q 697.323 73.864 697.747 72.233 A 5.304 5.304 0 0 0 697.901 70.9 L 697.901 59 A 5.183 5.183 0 0 0 697.722 57.576 Q 697.264 55.978 695.634 55.554 A 5.304 5.304 0 0 0 694.301 55.4 L 674.201 55.4 A 11.374 11.374 0 0 1 671.974 55.202 Q 668.101 54.425 668.101 50.6 L 668.101 26.8 A 5.794 5.794 0 0 1 668.476 24.627 Q 669.614 21.8 674.201 21.8 L 694.301 21.8 A 5.183 5.183 0 0 0 695.725 21.622 Q 697.323 21.164 697.747 19.533 A 5.304 5.304 0 0 0 697.901 18.2 L 697.901 6.1 A 5.183 5.183 0 0 0 697.722 4.676 Q 697.264 3.078 695.634 2.654 A 5.304 5.304 0 0 0 694.301 2.5 L 669.901 2.5 Q 657.54 2.5 651.531 7.312 A 15.229 15.229 0 0 0 651.301 7.5 A 15.683 15.683 0 0 0 646.368 15.12 Q 645.567 17.708 645.367 20.847 A 33.839 33.839 0 0 0 645.301 23 L 645.301 54.1 A 28.576 28.576 0 0 0 645.858 59.936 Q 647.129 66.024 651.301 69.5 A 18.438 18.438 0 0 0 656.995 72.643 Q 662.222 74.5 669.901 74.5 Z M 774.701 70.8 L 761.801 81.6 A 18.253 18.253 0 0 1 758.285 83.929 Q 755.615 85.309 752.051 86.25 A 42.521 42.521 0 0 1 747.074 87.223 Q 742.207 87.9 735.801 87.9 A 79.534 79.534 0 0 1 729.477 87.664 Q 723.835 87.213 719.701 85.9 A 32.45 32.45 0 0 1 715.369 84.196 Q 712.088 82.606 709.901 80.45 A 19.119 19.119 0 0 1 705.995 75.032 A 17.851 17.851 0 0 1 705.051 72.6 Q 703.701 68.2 703.701 63.5 L 703.701 32.4 A 29.564 29.564 0 0 1 704.135 27.233 A 24.212 24.212 0 0 1 705.001 23.8 A 14.38 14.38 0 0 1 709.182 17.544 A 17.344 17.344 0 0 1 709.701 17.1 L 722.701 6.3 A 18.253 18.253 0 0 1 726.216 3.971 Q 728.886 2.591 732.451 1.65 A 42.521 42.521 0 0 1 737.427 0.677 Q 742.294 0 748.701 0 A 102.521 102.521 0 0 1 755.024 0.183 Q 758.11 0.375 760.744 0.765 A 44.115 44.115 0 0 1 764.801 1.55 A 34.733 34.733 0 0 1 768.795 2.775 Q 772.286 4.097 774.551 6 A 16.132 16.132 0 0 1 778.034 10.021 A 14.636 14.636 0 0 1 779.351 12.85 A 25.241 25.241 0 0 1 780.588 18.846 A 30.607 30.607 0 0 1 780.701 21.5 L 780.701 55.6 A 28.427 28.427 0 0 1 780.242 60.798 A 23.66 23.66 0 0 1 779.401 64.05 Q 778.101 67.9 774.701 70.8 Z M 539.801 53.2 L 539.801 11.5 L 540.801 11.5 L 540.801 53.2 A 14.12 14.12 0 0 0 541.266 56.892 A 11.829 11.829 0 0 0 542.451 59.75 A 8.596 8.596 0 0 0 544.817 62.344 Q 546.24 63.399 548.251 64.15 Q 552.223 65.634 559.173 65.697 A 68.682 68.682 0 0 0 559.801 65.7 Q 567.301 65.7 571.451 64.15 A 15.154 15.154 0 0 0 573.982 62.947 Q 575.344 62.125 576.28 61.082 A 7.968 7.968 0 0 0 577.251 59.75 A 12.279 12.279 0 0 0 578.81 54.888 A 15.365 15.365 0 0 0 578.901 53.2 L 578.901 11.5 L 579.901 11.5 L 579.901 53.2 A 15.509 15.509 0 0 1 579.435 57.073 A 12.711 12.711 0 0 1 578.151 60.25 Q 576.401 63.3 572.051 65 Q 567.701 66.7 559.801 66.7 A 57.84 57.84 0 0 1 555.276 66.535 Q 550.991 66.198 548.107 65.171 A 16.039 16.039 0 0 1 547.651 65 A 16.068 16.068 0 0 1 544.967 63.672 Q 542.699 62.252 541.551 60.25 Q 539.801 57.2 539.801 53.2 Z M 118.901 70.9 L 118.901 56.9 L 136.601 56.9 L 136.601 70.9 Q 136.601 73.732 139.013 74.336 A 6.139 6.139 0 0 0 140.501 74.5 L 155.601 74.5 A 5.183 5.183 0 0 0 157.025 74.322 Q 158.623 73.864 159.047 72.233 A 5.304 5.304 0 0 0 159.201 70.9 L 159.201 44.5 A 23.07 23.07 0 0 0 159.019 41.703 Q 158.844 40.273 158.5 38.683 A 42.814 42.814 0 0 0 158.251 37.6 A 55.531 55.531 0 0 0 157.39 34.492 Q 156.551 31.75 155.301 28.5 L 146.601 5.8 Q 145.743 3.228 143.184 2.661 A 7.321 7.321 0 0 0 141.601 2.5 L 114.701 2.5 A 7.333 7.333 0 0 0 112.781 2.733 Q 110.557 3.336 109.708 5.504 A 6.109 6.109 0 0 0 109.601 5.8 L 100.901 28.5 A 102.517 102.517 0 0 0 99.548 32.217 Q 98.921 34.058 98.453 35.701 A 51.496 51.496 0 0 0 97.951 37.6 A 38.293 38.293 0 0 0 97.335 40.62 Q 97.095 42.129 97.027 43.473 A 20.428 20.428 0 0 0 97.001 44.5 L 97.001 70.9 A 5.183 5.183 0 0 0 97.179 72.325 Q 97.637 73.922 99.267 74.347 A 5.304 5.304 0 0 0 100.601 74.5 L 115.301 74.5 A 5.183 5.183 0 0 0 116.725 74.322 Q 118.323 73.864 118.747 72.233 A 5.304 5.304 0 0 0 118.901 70.9 Z M 382.101 70.9 L 382.101 56.9 L 399.801 56.9 L 399.801 70.9 Q 399.801 73.732 402.213 74.336 A 6.139 6.139 0 0 0 403.701 74.5 L 418.801 74.5 A 5.183 5.183 0 0 0 420.225 74.322 Q 421.823 73.864 422.247 72.233 A 5.304 5.304 0 0 0 422.401 70.9 L 422.401 44.5 A 23.07 23.07 0 0 0 422.219 41.703 Q 422.044 40.273 421.7 38.683 A 42.814 42.814 0 0 0 421.451 37.6 A 55.531 55.531 0 0 0 420.59 34.492 Q 419.751 31.75 418.501 28.5 L 409.801 5.8 Q 408.943 3.228 406.384 2.661 A 7.321 7.321 0 0 0 404.801 2.5 L 377.901 2.5 A 7.333 7.333 0 0 0 375.981 2.733 Q 373.757 3.336 372.908 5.504 A 6.109 6.109 0 0 0 372.801 5.8 L 364.101 28.5 A 102.517 102.517 0 0 0 362.748 32.217 Q 362.121 34.058 361.653 35.701 A 51.496 51.496 0 0 0 361.151 37.6 A 38.293 38.293 0 0 0 360.535 40.62 Q 360.295 42.129 360.227 43.473 A 20.428 20.428 0 0 0 360.201 44.5 L 360.201 70.9 A 5.183 5.183 0 0 0 360.379 72.325 Q 360.837 73.922 362.467 74.347 A 5.304 5.304 0 0 0 363.801 74.5 L 378.501 74.5 A 5.183 5.183 0 0 0 379.925 74.322 Q 381.523 73.864 381.947 72.233 A 5.304 5.304 0 0 0 382.101 70.9 Z M 1145.201 74.5 L 1161.401 74.5 A 5.183 5.183 0 0 0 1162.825 74.322 Q 1164.423 73.864 1164.847 72.233 A 5.304 5.304 0 0 0 1165.001 70.9 L 1165.001 21.8 L 1179.701 21.8 A 5.183 5.183 0 0 0 1181.125 21.622 Q 1182.723 21.164 1183.147 19.533 A 5.304 5.304 0 0 0 1183.301 18.2 L 1183.301 6.1 A 5.183 5.183 0 0 0 1183.122 4.676 Q 1182.664 3.078 1181.034 2.654 A 5.304 5.304 0 0 0 1179.701 2.5 L 1126.901 2.5 A 5.183 5.183 0 0 0 1125.476 2.679 Q 1123.878 3.136 1123.454 4.767 A 5.304 5.304 0 0 0 1123.301 6.1 L 1123.301 18.2 A 5.183 5.183 0 0 0 1123.479 19.625 Q 1123.937 21.222 1125.567 21.647 A 5.304 5.304 0 0 0 1126.901 21.8 L 1141.601 21.8 L 1141.601 70.9 A 5.183 5.183 0 0 0 1141.779 72.325 Q 1142.237 73.922 1143.867 74.347 A 5.304 5.304 0 0 0 1145.201 74.5 Z M 897.501 11.5 L 898.501 11.5 L 898.501 33.1 Q 898.501 37.915 899.772 41.537 A 17.888 17.888 0 0 0 900.101 42.4 L 906.701 58.4 Q 907.642 60.624 908.656 62.227 A 17.074 17.074 0 0 0 909.001 62.75 Q 910.201 64.5 913.001 64.5 L 921.801 64.5 Q 924.701 64.5 925.901 62.75 A 16.738 16.738 0 0 0 926.912 61.056 Q 927.382 60.161 927.815 59.115 A 29.87 29.87 0 0 0 928.101 58.4 L 934.701 42.4 Q 936.301 38.5 936.301 33.1 L 936.301 11.5 L 937.301 11.5 L 937.301 33.1 A 39.078 39.078 0 0 1 937.19 36.103 A 30.524 30.524 0 0 1 936.951 38.25 Q 936.601 40.6 935.701 42.8 L 929.101 58.8 Q 928.074 61.281 926.864 63.03 A 15.042 15.042 0 0 1 926.451 63.6 Q 925.148 65.307 922.432 65.481 A 9.921 9.921 0 0 1 921.801 65.5 L 913.001 65.5 A 8.002 8.002 0 0 1 911.219 65.315 Q 909.432 64.906 908.401 63.6 A 16.388 16.388 0 0 1 907.06 61.599 Q 906.473 60.577 905.943 59.368 A 28.736 28.736 0 0 1 905.701 58.8 L 899.101 42.8 Q 898.201 40.6 897.851 38.25 Q 897.501 35.9 897.501 33.1 L 897.501 11.5 Z M 17.501 74.5 L 51.201 74.5 Q 63.561 74.5 69.57 69.689 A 15.229 15.229 0 0 0 69.801 69.5 A 15.743 15.743 0 0 0 74.791 61.723 Q 75.58 59.1 75.752 55.923 A 33.629 33.629 0 0 0 75.801 54.1 L 75.801 22.9 A 28.576 28.576 0 0 0 75.243 17.064 Q 73.972 10.977 69.801 7.5 A 18.438 18.438 0 0 0 64.106 4.357 Q 58.879 2.5 51.201 2.5 L 17.501 2.5 A 5.183 5.183 0 0 0 16.076 2.679 Q 14.478 3.136 14.054 4.767 A 5.304 5.304 0 0 0 13.901 6.1 L 13.901 70.9 A 5.183 5.183 0 0 0 14.079 72.325 Q 14.537 73.922 16.167 74.347 A 5.304 5.304 0 0 0 17.501 74.5 Z M 779.701 55.6 L 779.701 21.5 Q 779.701 16.9 778.351 13.15 Q 777.001 9.4 773.601 6.7 A 17.828 17.828 0 0 0 770.401 4.704 Q 768.739 3.883 766.713 3.228 A 38.108 38.108 0 0 0 764.151 2.5 A 44.103 44.103 0 0 0 759.256 1.601 Q 754.649 1 748.701 1 A 97.51 97.51 0 0 0 742.634 1.177 Q 739.674 1.362 737.145 1.741 A 42.094 42.094 0 0 0 733.251 2.5 Q 728.875 3.585 725.886 5.297 A 16.67 16.67 0 0 0 723.801 6.7 A 15.601 15.601 0 0 0 720.408 10.368 A 14.01 14.01 0 0 0 719.001 13.15 A 22.068 22.068 0 0 0 717.766 18.438 A 27.574 27.574 0 0 0 717.601 21.5 L 717.601 55.6 A 26.128 26.128 0 0 0 718.04 60.49 A 21.213 21.213 0 0 0 719.001 63.95 A 14.486 14.486 0 0 0 722.982 69.709 A 17.565 17.565 0 0 0 723.801 70.4 A 17.504 17.504 0 0 0 727 72.388 Q 728.662 73.201 730.688 73.843 A 37.315 37.315 0 0 0 733.251 74.55 A 45.474 45.474 0 0 0 738.145 75.42 Q 740.737 75.746 743.752 75.889 A 104.738 104.738 0 0 0 748.701 76 A 100.863 100.863 0 0 0 754.767 75.829 Q 760.18 75.502 764.151 74.55 A 34.867 34.867 0 0 0 767.997 73.406 Q 771.369 72.172 773.601 70.4 A 15.325 15.325 0 0 0 776.881 66.876 A 13.62 13.62 0 0 0 778.351 63.95 A 22.736 22.736 0 0 0 779.537 58.696 A 28.556 28.556 0 0 0 779.701 55.6 Z M 1098.301 65.5 L 1097.301 65.5 L 1097.301 52.1 A 12.362 12.362 0 0 0 1096.691 48.045 Q 1094.699 42.3 1086.201 42.3 L 1057.901 42.3 L 1057.901 65.5 L 1056.901 65.5 L 1056.901 11.5 L 1079.701 11.5 A 17.19 17.19 0 0 1 1082.926 11.782 Q 1084.726 12.127 1086.112 12.892 A 8.053 8.053 0 0 1 1088.351 14.7 Q 1091.101 17.9 1091.101 22.9 L 1091.101 29.8 A 27.922 27.922 0 0 1 1090.932 32.964 Q 1090.651 35.425 1089.901 37.3 A 6.572 6.572 0 0 1 1086.561 40.828 A 9.728 9.728 0 0 1 1085.101 41.4 L 1086.201 41.4 Q 1096.559 41.4 1098.05 49.242 A 15.316 15.316 0 0 1 1098.301 52.1 L 1098.301 65.5 Z M 688.801 64.5 L 688.801 65.5 L 672.101 65.5 Q 665.601 65.5 662.151 64.2 A 10.005 10.005 0 0 1 659.865 63.007 A 7.303 7.303 0 0 1 657.401 60.05 A 12.747 12.747 0 0 1 656.571 57.501 Q 656.292 56.234 656.178 54.744 A 28.272 28.272 0 0 1 656.101 52.6 L 656.101 24.6 A 27.841 27.841 0 0 1 656.246 21.66 Q 656.543 18.865 657.451 16.95 A 7.675 7.675 0 0 1 660.645 13.554 A 10.802 10.802 0 0 1 662.251 12.8 A 16.097 16.097 0 0 1 664.695 12.115 Q 667.701 11.5 672.101 11.5 L 688.801 11.5 L 688.801 12.5 L 672.101 12.5 A 48.968 48.968 0 0 0 668.751 12.607 Q 665.584 12.825 663.441 13.488 A 12.919 12.919 0 0 0 662.951 13.65 A 9.345 9.345 0 0 0 660.714 14.774 A 6.952 6.952 0 0 0 658.401 17.45 A 10.985 10.985 0 0 0 657.608 19.698 Q 657.327 20.857 657.201 22.239 A 26.169 26.169 0 0 0 657.101 24.6 L 657.101 52.6 A 24.204 24.204 0 0 0 657.248 55.361 Q 657.407 56.739 657.736 57.892 A 10.872 10.872 0 0 0 658.351 59.55 Q 659.601 62.2 662.851 63.35 A 15.958 15.958 0 0 0 665.15 63.957 Q 667.976 64.5 672.101 64.5 L 688.801 64.5 Z M 148.601 44.2 L 148.601 65.5 L 147.601 65.5 L 147.601 48.3 L 108.601 48.3 L 108.601 65.5 L 107.601 65.5 L 107.601 44.2 A 30.435 30.435 0 0 1 107.743 41.193 A 24.028 24.028 0 0 1 108.051 39.05 Q 108.501 36.7 109.301 34.5 L 115.701 18.1 A 25.355 25.355 0 0 1 116.72 15.822 Q 117.305 14.68 117.957 13.741 A 14.814 14.814 0 0 1 118.201 13.4 Q 119.601 11.5 123.001 11.5 L 132.801 11.5 Q 134.837 11.5 136.131 12.224 A 3.975 3.975 0 0 1 137.451 13.4 Q 138.597 15.014 139.636 17.35 A 35.513 35.513 0 0 1 140.001 18.2 L 146.901 34.5 Q 147.701 36.7 148.151 39.05 A 24.92 24.92 0 0 1 148.526 41.999 A 31.597 31.597 0 0 1 148.601 44.2 Z M 411.801 44.2 L 411.801 65.5 L 410.801 65.5 L 410.801 48.3 L 371.801 48.3 L 371.801 65.5 L 370.801 65.5 L 370.801 44.2 A 30.435 30.435 0 0 1 370.943 41.193 A 24.028 24.028 0 0 1 371.251 39.05 Q 371.701 36.7 372.501 34.5 L 378.901 18.1 A 25.355 25.355 0 0 1 379.92 15.822 Q 380.505 14.68 381.157 13.741 A 14.814 14.814 0 0 1 381.401 13.4 Q 382.801 11.5 386.201 11.5 L 396.001 11.5 Q 398.037 11.5 399.331 12.224 A 3.975 3.975 0 0 1 400.651 13.4 Q 401.797 15.014 402.836 17.35 A 35.513 35.513 0 0 1 403.201 18.2 L 410.101 34.5 Q 410.901 36.7 411.351 39.05 A 24.92 24.92 0 0 1 411.726 41.999 A 31.597 31.597 0 0 1 411.801 44.2 Z M 1153.801 65.5 L 1152.801 65.5 L 1152.801 12.5 L 1132.301 12.5 L 1132.301 11.5 L 1174.301 11.5 L 1174.301 12.5 L 1153.801 12.5 L 1153.801 65.5 Z M 49.001 65.5 L 24.801 65.5 L 24.801 11.5 L 49.001 11.5 A 40.371 40.371 0 0 1 52.561 11.647 Q 56.238 11.973 58.596 13.029 A 10.267 10.267 0 0 1 59.251 13.35 A 11.223 11.223 0 0 1 61.672 15.066 A 8.464 8.464 0 0 1 63.851 18.35 A 18.775 18.775 0 0 1 64.839 22.581 A 23.824 23.824 0 0 1 65.001 25.4 L 65.001 51.9 A 22.706 22.706 0 0 1 64.662 55.9 A 18.279 18.279 0 0 1 63.901 58.8 Q 62.801 61.9 59.351 63.7 A 12.71 12.71 0 0 1 56.715 64.688 Q 54.069 65.386 50.274 65.484 A 49.246 49.246 0 0 1 49.001 65.5 Z M 49.001 12.5 L 25.801 12.5 L 25.801 64.5 L 49.001 64.5 Q 55.401 64.5 58.601 62.85 A 10.441 10.441 0 0 0 60.817 61.345 A 7.741 7.741 0 0 0 62.901 58.35 A 16.17 16.17 0 0 0 63.833 54.598 A 20.938 20.938 0 0 0 64.001 51.9 L 64.001 25.4 Q 64.001 21.7 62.901 18.8 A 8.017 8.017 0 0 0 60.25 15.283 A 11.226 11.226 0 0 0 58.551 14.2 Q 55.604 12.659 50.151 12.515 A 43.606 43.606 0 0 0 49.001 12.5 Z M 728.401 53.3 L 728.401 23.8 A 16.142 16.142 0 0 1 728.779 20.226 A 12.382 12.382 0 0 1 730.151 16.7 Q 731.654 14.122 735.115 12.504 A 18.777 18.777 0 0 1 736.301 12 A 20.932 20.932 0 0 1 739.716 11.034 Q 743.258 10.323 748.177 10.301 A 70.613 70.613 0 0 1 748.501 10.3 A 59.348 59.348 0 0 1 753.07 10.464 Q 757.395 10.799 760.31 11.82 A 16.366 16.366 0 0 1 760.801 12 A 16.772 16.772 0 0 1 763.518 13.323 Q 764.992 14.225 766.007 15.357 A 8.779 8.779 0 0 1 767.001 16.7 A 12.496 12.496 0 0 1 768.607 21.228 A 16.476 16.476 0 0 1 768.801 23.8 L 768.801 53.3 A 15.1 15.1 0 0 1 768.322 57.173 A 12.512 12.512 0 0 1 767.001 60.35 Q 765.415 63.037 761.812 64.676 A 18.833 18.833 0 0 1 760.801 65.1 A 20.744 20.744 0 0 1 757.449 66.051 Q 753.992 66.75 749.19 66.797 A 71.291 71.291 0 0 1 748.501 66.8 A 57.989 57.989 0 0 1 743.958 66.634 Q 739.489 66.282 736.516 65.182 A 16.146 16.146 0 0 1 736.301 65.1 Q 732.916 63.792 731.099 61.686 A 8.586 8.586 0 0 1 730.151 60.35 Q 728.401 57.3 728.401 53.3 Z M 767.801 53.3 L 767.801 23.8 A 14.338 14.338 0 0 0 767.427 20.457 A 11.296 11.296 0 0 0 766.101 17.2 Q 764.666 14.838 761.452 13.365 A 17.8 17.8 0 0 0 760.201 12.85 A 20.553 20.553 0 0 0 757.006 11.984 Q 753.715 11.346 749.156 11.303 A 70.493 70.493 0 0 0 748.501 11.3 Q 741.101 11.3 736.901 12.85 Q 732.701 14.4 731.051 17.2 A 11.794 11.794 0 0 0 729.578 21.414 A 15.477 15.477 0 0 0 729.401 23.8 L 729.401 53.3 A 14.12 14.12 0 0 0 729.866 56.992 A 11.829 11.829 0 0 0 731.051 59.85 A 8.508 8.508 0 0 0 733.384 62.409 Q 734.426 63.184 735.787 63.796 A 17.43 17.43 0 0 0 736.901 64.25 A 20.727 20.727 0 0 0 740.145 65.129 Q 743.519 65.779 748.193 65.8 A 69.707 69.707 0 0 0 748.501 65.8 A 58.685 58.685 0 0 0 752.859 65.649 Q 756.959 65.343 759.734 64.414 A 16.175 16.175 0 0 0 760.201 64.25 A 15.53 15.53 0 0 0 762.78 63.039 Q 764.156 62.218 765.109 61.178 A 8.124 8.124 0 0 0 766.101 59.85 A 12.056 12.056 0 0 0 767.719 54.878 A 14.99 14.99 0 0 0 767.801 53.3 Z M 108.601 44.2 L 108.601 47.3 L 147.601 47.3 L 147.601 44.2 A 32.175 32.175 0 0 0 147.474 41.289 A 25.857 25.857 0 0 0 147.201 39.2 A 22.009 22.009 0 0 0 146.331 35.79 A 19.624 19.624 0 0 0 146.001 34.9 L 139.101 18.6 Q 138.159 16.376 137.145 14.774 A 17.074 17.074 0 0 0 136.801 14.25 Q 135.601 12.5 132.801 12.5 L 123.001 12.5 A 8.282 8.282 0 0 0 121.494 12.627 Q 120.671 12.78 120.041 13.116 A 3.523 3.523 0 0 0 118.801 14.2 A 15.44 15.44 0 0 0 117.789 15.86 Q 117.163 17.038 116.601 18.5 L 110.201 34.9 A 29.845 29.845 0 0 0 109.307 37.999 A 34.779 34.779 0 0 0 109.051 39.2 A 24.062 24.062 0 0 0 108.664 42.231 A 29.823 29.823 0 0 0 108.601 44.2 Z M 371.801 44.2 L 371.801 47.3 L 410.801 47.3 L 410.801 44.2 A 32.175 32.175 0 0 0 410.674 41.289 A 25.857 25.857 0 0 0 410.401 39.2 A 22.009 22.009 0 0 0 409.531 35.79 A 19.624 19.624 0 0 0 409.201 34.9 L 402.301 18.6 Q 401.359 16.376 400.345 14.774 A 17.074 17.074 0 0 0 400.001 14.25 Q 398.801 12.5 396.001 12.5 L 386.201 12.5 A 8.282 8.282 0 0 0 384.694 12.627 Q 383.871 12.78 383.241 13.116 A 3.523 3.523 0 0 0 382.001 14.2 A 15.44 15.44 0 0 0 380.989 15.86 Q 380.363 17.038 379.801 18.5 L 373.401 34.9 A 29.845 29.845 0 0 0 372.507 37.999 A 34.779 34.779 0 0 0 372.251 39.2 A 24.062 24.062 0 0 0 371.864 42.231 A 29.823 29.823 0 0 0 371.801 44.2 Z M 1057.901 12.5 L 1057.901 41.4 L 1079.701 41.4 Q 1085.156 41.4 1087.437 39.078 A 5.317 5.317 0 0 0 1088.001 38.4 A 10.258 10.258 0 0 0 1089.38 35.487 Q 1089.785 34.157 1089.963 32.556 A 24.157 24.157 0 0 0 1090.101 29.9 L 1090.101 22.9 A 14.062 14.062 0 0 0 1089.746 19.651 A 9.679 9.679 0 0 0 1087.551 15.35 A 7.933 7.933 0 0 0 1084.065 13.126 Q 1082.772 12.696 1081.194 12.561 A 17.595 17.595 0 0 0 1079.701 12.5 L 1057.901 12.5 Z M 36.601 55.6 L 36.601 21.6 L 48.501 21.6 Q 53.201 21.6 53.201 26.4 L 53.201 50.7 Q 53.201 55.6 48.501 55.6 L 36.601 55.6 Z M 740.301 52 L 740.301 25.1 A 4.342 4.342 0 0 1 740.699 23.224 A 4.32 4.32 0 0 1 741.801 21.8 A 3.499 3.499 0 0 1 742.853 21.209 Q 744.714 20.5 748.701 20.5 A 36.169 36.169 0 0 1 750.911 20.562 Q 754.109 20.759 755.362 21.58 A 2.408 2.408 0 0 1 755.651 21.8 A 4.207 4.207 0 0 1 757.095 24.853 A 5.343 5.343 0 0 1 757.101 25.1 L 757.101 52 Q 757.101 54 755.651 55.35 A 3.291 3.291 0 0 1 754.614 55.964 Q 752.761 56.7 748.701 56.7 A 33.743 33.743 0 0 1 746.525 56.636 Q 743.351 56.429 742.078 55.566 A 2.567 2.567 0 0 1 741.801 55.35 A 4.471 4.471 0 0 1 740.619 53.706 A 4.486 4.486 0 0 1 740.301 52 Z M 119.901 38.7 L 124.601 23.5 Q 125.301 21.8 126.501 21.8 L 129.001 21.8 Q 129.975 21.8 130.62 22.921 A 4.917 4.917 0 0 1 130.901 23.5 L 135.601 38.7 L 119.901 38.7 Z M 383.101 38.7 L 387.801 23.5 Q 388.501 21.8 389.701 21.8 L 392.201 21.8 Q 393.175 21.8 393.82 22.921 A 4.917 4.917 0 0 1 394.101 23.5 L 398.801 38.7 L 383.101 38.7 Z M 1068.701 33.3 L 1068.701 20.5 L 1076.201 20.5 Q 1078.743 20.5 1079.66 21.792 A 2.425 2.425 0 0 1 1079.701 21.85 A 5.198 5.198 0 0 1 1080.452 23.682 A 7.36 7.36 0 0 1 1080.601 25.2 L 1080.601 28.6 A 7.36 7.36 0 0 1 1080.452 30.118 A 5.198 5.198 0 0 1 1079.701 31.95 A 2.649 2.649 0 0 1 1078.51 32.908 Q 1078.029 33.116 1077.41 33.213 A 7.781 7.781 0 0 1 1076.201 33.3 L 1068.701 33.3 Z M 741.301 33.1 L 741.301 52 A 4.243 4.243 0 0 0 741.388 52.883 A 3.281 3.281 0 0 0 741.701 53.75 A 2.282 2.282 0 0 0 742.218 54.388 Q 742.608 54.731 743.201 55 L 743.201 36 A 4.243 4.243 0 0 0 743.113 35.118 A 3.281 3.281 0 0 0 742.801 34.25 Q 742.401 33.5 741.301 33.1 Z M 39.301 54.6 L 39.301 37.3 A 7.062 7.062 0 0 0 39.207 36.103 Q 39.1 35.482 38.869 35.013 A 2.403 2.403 0 0 0 37.601 33.8 L 37.601 54.6 L 39.301 54.6 Z" vector-effect="non-scaling-stroke"/></g></svg>